<svg width="120" height="48" viewBox="0 0 120 48" fill="none" xmlns="http://www.w3.org/2000/svg">
<path fill-rule="evenodd" clip-rule="evenodd" d="M116.031 30.4957C115.695 30.719 115.328 30.8909 114.942 31.0059C114.508 31.1328 114.058 31.1948 113.607 31.1897C112.971 31.1901 112.341 31.0654 111.753 30.8225C111.152 30.5755 110.605 30.2119 110.144 29.7522C109.655 29.2632 109.267 28.6813 109.003 28.0401C108.718 27.3677 108.575 26.5962 108.575 25.7256V25.6849C108.576 24.8292 108.718 24.061 109.003 23.3804C109.266 22.7352 109.653 22.1496 110.144 21.6579C110.607 21.1976 111.153 20.8309 111.753 20.5777C112.34 20.3285 112.97 20.2003 113.607 20.2007C114.062 20.1957 114.515 20.2572 114.952 20.3833C115.338 20.497 115.708 20.6614 116.052 20.8722C116.375 21.074 116.672 21.314 116.939 21.5871C117.197 21.8517 117.432 22.1381 117.641 22.4432V16.082H119.21V30.9652H117.641V28.8448C117.421 29.1605 117.179 29.4605 116.918 29.7424C116.653 30.0277 116.355 30.2806 116.031 30.4957ZM111.289 28.6816C111.624 29.0315 112.026 29.3088 112.471 29.4966C112.923 29.6879 113.408 29.785 113.898 29.782C114.385 29.7824 114.867 29.6818 115.313 29.4863C115.77 29.289 116.185 29.0053 116.535 28.6504C116.9 28.2825 117.191 27.8465 117.391 27.3667C117.602 26.8706 117.707 26.3165 117.707 25.7044V25.6636C117.715 25.094 117.607 24.5287 117.391 24.0025C117.192 23.5248 116.901 23.0917 116.535 22.7282C116.182 22.3793 115.768 22.0993 115.313 21.9022C114.866 21.7072 114.385 21.6067 113.898 21.607C113.402 21.6031 112.911 21.6962 112.451 21.8813C112.009 22.0606 111.61 22.332 111.279 22.6776C110.933 23.0446 110.663 23.4775 110.485 23.9511C110.288 24.4547 110.189 25.0256 110.189 25.6636V25.7044C110.19 26.3299 110.289 26.8941 110.485 27.3971C110.666 27.8749 110.939 28.3115 111.289 28.6816ZM107.336 26.3368C107.349 26.2318 107.356 26.1263 107.358 26.0206V25.7866C107.363 25.0464 107.252 24.31 107.031 23.6042C106.83 22.9556 106.505 22.3532 106.074 21.8311C105.649 21.3254 105.121 20.9184 104.525 20.6379C103.914 20.3465 103.221 20.2005 102.447 20.2C101.748 20.1924 101.057 20.3385 100.42 20.6281C99.8136 20.9052 99.2693 21.3039 98.8204 21.7999C98.3631 22.3116 98.0071 22.9067 97.7716 23.5532C97.5176 24.2412 97.3897 24.97 97.3942 25.704C97.3942 26.5202 97.5335 27.2677 97.812 27.9466C98.0709 28.5976 98.4552 29.1904 98.9427 29.6907C99.4195 30.1735 99.9879 30.5545 100.614 30.8112C101.26 31.0779 101.952 31.2129 102.651 31.2084C103.656 31.2084 104.498 31.0286 105.176 30.6689C105.862 30.3037 106.476 29.8169 106.99 29.2318L106.012 28.3552C105.594 28.7907 105.109 29.1555 104.576 29.4354C104.053 29.7071 103.425 29.843 102.692 29.8433C102.24 29.8451 101.791 29.7659 101.367 29.6093C100.948 29.4541 100.562 29.2223 100.227 28.9256C99.8792 28.6175 99.5952 28.2435 99.3911 27.8248C99.1643 27.3588 99.0261 26.8541 98.9835 26.3368L107.336 26.3368ZM99.3644 23.6536C99.1639 24.0959 99.0365 24.5682 98.987 25.0519H105.771C105.733 24.5905 105.63 24.1369 105.466 23.7046C105.311 23.2935 105.087 22.9127 104.803 22.5792C104.522 22.2521 104.175 21.9894 103.785 21.8087C103.384 21.62 102.926 21.5256 102.41 21.5256C101.975 21.5227 101.545 21.6121 101.147 21.7881C100.755 21.9625 100.402 22.2141 100.108 22.5282C99.7997 22.859 99.5484 23.2394 99.3644 23.6536Z" fill="#00C8DC"/>
<path fill-rule="evenodd" clip-rule="evenodd" d="M55.6523 30.9653H57.222V21.8117H60.5424V20.466H57.2012V19.6092C57.2012 18.1143 57.8124 17.3667 59.0346 17.3666C59.2876 17.3648 59.5401 17.3885 59.7883 17.4374C60.0197 17.4857 60.2779 17.5504 60.5631 17.6314V16.2659C60.3087 16.1721 60.0458 16.1037 59.7781 16.0616C59.4643 16.0177 59.1477 15.9972 58.8308 16.0003C57.8654 16.0003 57.1117 16.2724 56.5694 16.8164C55.9577 17.4279 55.652 18.3315 55.6523 19.5274V30.9653ZM67.4914 30.9648H69.0595V16.3619H67.4914V30.9648ZM77.2727 30.7001C77.0002 30.8501 76.7092 30.9632 76.4073 31.0364C76.0701 31.1146 75.7249 31.1523 75.3789 31.1487C74.979 31.1519 74.5808 31.0969 74.1965 30.9854C73.8461 30.8861 73.5225 30.7085 73.2496 30.4657C72.9724 30.2106 72.7593 29.8926 72.628 29.5381C72.4785 29.158 72.4038 28.7014 72.4038 28.1718V16.3777H73.9727V20.4252H77.3138V21.8117H73.9727V27.9526C73.9729 28.6029 74.1357 29.0568 74.4611 29.3144C74.7871 29.5726 75.2151 29.7017 75.745 29.7017C76.0017 29.7032 76.2579 29.6773 76.5092 29.6245C76.773 29.5637 77.0291 29.4731 77.2727 29.3543V30.7001ZM88.47 26.0212C88.469 26.1269 88.4625 26.2324 88.4504 26.3374L80.0969 26.3374C80.1405 26.8546 80.2789 27.3592 80.5053 27.8255C80.7093 28.2441 80.9931 28.6181 81.3405 28.9262C81.6754 29.2232 82.0621 29.4549 82.481 29.6095C82.9053 29.7662 83.3538 29.8455 83.8057 29.8439C84.5387 29.8436 85.1666 29.7077 85.6893 29.436C86.2226 29.1559 86.7077 28.7912 87.1261 28.3558L88.1039 29.2317C87.5904 29.817 86.9761 30.304 86.2909 30.6692C85.6107 31.0296 84.7688 31.2098 83.7653 31.2098C83.0665 31.2141 82.3737 31.0788 81.7269 30.8118C81.101 30.5554 80.5329 30.1743 80.0565 29.6913C79.5694 29.1907 79.1852 28.598 78.9258 27.9472C78.6476 27.2683 78.5084 26.5208 78.5084 25.7047C78.5038 24.9706 78.6314 24.2419 78.8851 23.5538C79.1205 22.9073 79.4766 22.3123 79.9343 21.8009C80.3828 21.3048 80.9267 20.9059 81.533 20.6283C82.1701 20.339 82.862 20.193 83.5607 20.2006C84.3351 20.2005 85.0277 20.3468 85.6387 20.6393C86.2345 20.9189 86.7627 21.3258 87.1868 21.8318C87.618 22.3539 87.9433 22.9563 88.1443 23.6048C88.3655 24.3103 88.4754 25.0465 88.47 25.7865V26.0212ZM92.2862 30.9651H90.7174V20.425H92.2862V23.1774C92.4731 22.7479 92.7126 22.3436 92.9991 21.974C93.279 21.6127 93.6086 21.2934 93.9778 21.0258C94.3436 20.7614 94.7495 20.5585 95.1798 20.425C95.635 20.2859 96.1099 20.2238 96.5852 20.2413V21.9333H96.463C95.9088 21.9304 95.3592 22.0339 94.8435 22.2384C94.3367 22.4411 93.8809 22.7547 93.509 23.1565C93.1287 23.5644 92.8297 24.0708 92.6119 24.6758C92.3948 25.281 92.2862 25.9774 92.2862 26.765V30.9651ZM80.1013 25.0525C80.1513 24.569 80.2786 24.0968 80.4783 23.6543C80.663 23.2404 80.9142 22.8602 81.2218 22.5288C81.5161 22.2151 81.8694 21.9636 82.2611 21.7888C82.6591 21.6127 83.0894 21.5233 83.5239 21.5262C84.0402 21.5262 84.4988 21.6206 84.8996 21.8093C85.2894 21.9906 85.6365 22.2532 85.9182 22.5798C86.2022 22.9132 86.4262 23.2941 86.5802 23.7053C86.7441 24.1377 86.847 24.5912 86.8859 25.0525H80.1013ZM64.546 18.4682H62.7537V16.7344H64.546V18.4682ZM64.4259 30.9658H62.8771V20.4246H64.4259V30.9658Z" fill="#00C8DC"/>
<circle cx="24" cy="24" r="24" fill="#00C8DC"/>
<path fill-rule="evenodd" clip-rule="evenodd" d="M34.361 14.0315H12.9164C12.8307 14.0316 12.7515 14.078 12.7085 14.1533C12.6656 14.2285 12.6655 14.3213 12.7082 14.3967L23.0258 32.2655L23.0915 32.3786L21.106 35.8242C21.0698 35.8848 21.0688 35.9606 21.1034 36.0223C21.138 36.0839 21.2027 36.1217 21.2727 36.1211H26.0764C26.1464 36.1219 26.2114 36.0842 26.2463 36.0226C26.2812 35.961 26.2805 35.8851 26.2447 35.8242L24.2322 32.3339L24.2746 32.2621L34.5691 14.3967C34.6118 14.3213 34.6117 14.2285 34.5688 14.1533C34.5259 14.078 34.4467 14.0316 34.361 14.0315ZM32.9066 15.1213L23.6495 31.1841L14.3726 15.1213H32.9066Z" fill="white"/>
</svg>
