<svg xmlns="http://www.w3.org/2000/svg" id="Final" viewBox="0 0 510 210"><defs><style>      .cls-1 {        fill: none;      }      .cls-2 {        fill: #e00034;      }    </style></defs><rect class="cls-1" width="510" height="210"></rect><path class="cls-2" d="M150.82,71.41c-9.52,0-17.32,3.12-23.37,9.37-6.08,6.26-9.1,14.28-9.1,24.1,0,9.83,3.03,17.87,9.1,24.12,6.05,6.26,13.85,9.39,23.37,9.39,13,0,21.87-3.35,26.64-10.04l-10.4-10.73c-4.76,3.58-10.16,5.36-16.24,5.36-3.46,0-6.49-1.01-9.09-3.02-2.6-2-4.12-4.79-4.55-8.36h44.82v-6.71c0-9.82-2.81-17.83-8.44-24.1-5.62-6.25-13.21-9.37-22.74-9.37ZM137.83,98.2c0-3.58,1.29-6.37,3.9-8.37,2.6-2.01,5.63-3.02,9.09-3.02s6.5,1.01,9.1,3.02c2.6,2.01,3.9,4.8,3.9,8.37h-25.98ZM250.49,71.35l-9.99,40.25-9.3-40.25h-13.44l-9.75,39.58-10.07-39.58h-17.08l17.41,67.04h16.25l9.74-33.55,9.74,33.55h16.24l17.35-67.04h-17.09ZM52.88,42.94c-3-2.4-6.68-3.94-11.03-4.6-3.05-.5-5.25-.39-5.25-.39-7.36,0-13.21,2.11-17.53,6.35-4.33,4.24-6.49,9.72-6.49,16.42v8.96H2.83v15.13h9.75v53.58h18.25v-53.58s9.74,0,9.74,0v-15.13h-9.74v-6.29c0-3.57.71-6.08,2.17-7.53,1.44-1.45,3.32-2.17,5.61-2.17.77,0,1.48.05,2.14.13.04,0,.07,0,.11,0,.52.07.99.18,1.46.31.21.08.42.14.61.23.21.07.4.16.57.25.47.26.85.5,1.12.73.05.04.08.07.12.1.12.12.19.19.26.3l10.27-10.59c-.77-.83-1.55-1.58-2.39-2.22ZM493.53,78.98c-4.33-5.12-10.61-7.69-18.83-7.69-6.03,0-11.22,2.02-15.59,6.02v-39.31l-18.18,18.75v81.48h18.18v-39.63c.03-.95.19-2.3.58-3.61.03-.11.06-.22.1-.34.06-.17.13-.32.2-.49.2-.54.48-1.07.8-1.6,1.1-1.67,4.91-6.43,11.81-4.89.32.07.62.18.91.25.3.1.61.16.93.29h0c1.67.63,3.05,1.57,4.14,2.82,2.17,2.46,3.26,5.91,3.26,10.37v36.82h18.17v-41.5c0-6.7-2.17-12.61-6.49-17.75ZM411.58,122.89c-4.76,0-8.66-1.79-11.69-5.36-3.03-3.57-4.54-7.8-4.54-12.72s1.63-9.14,4.87-12.73c3.25-3.55,7.04-5.34,11.37-5.34,4.76,0,9.1,2.01,12.99,6.04l11.35-11.71c-6.62-6.45-14.7-9.73-24.28-9.73-8.69,0-16.3,2.79-22.79,8.37-1.81,1.56-3.34,3.26-4.66,5.1,0-.01-.01-.03-.01-.04,0,0-.22.32-.55.87-1.57,2.36-2.72,4.94-3.46,7.72-1.93,5.91-3.15,14.36.21,23.76.8,2.64,2,5.06,3.55,7.32.08.13.16.29.25.44,0,0,0-.04,0-.04,1.3,1.82,2.85,3.53,4.66,5.09,6.5,5.57,14.08,8.37,22.74,8.37,9.59,0,17.68-3.28,24.34-9.74l-11.35-11.67c-3.89,4-8.23,6.01-12.99,6.01ZM113.83,71.41c-6.66,0-12.3,2.46-16.95,7.38v-7.45h-18.18v67.02h18.18v-37.77c.1-1.96.65-5.3,2.88-8.26,2.37-3.11,5.09-4.84,8.17-5.06,3.94.16,6.97,1.18,9.09,3.15l2.86-18.48c-1.91-.36-3.91-.54-6.04-.54ZM52.54,90.15v48.19h18.18v-66.93s-18.18,18.74-18.18,18.74ZM52.55,81l18.16-18.71v-6.35h-18.16s0,25.06,0,25.06ZM372.33,122.51c-2.3,0-4.18-.73-5.62-2.18-1.45-1.45-2.17-3.94-2.17-7.52v-26.32h9.74v-15.14h-9.74v-33.5l-18.25,18.8v14.69h-9.75v15.14h9.75v28.99c0,6.69,2.16,12.18,6.51,16.41,4.32,4.25,10.16,6.35,17.52,6.35,4.03,0,7.61-1.05,10.71-3.14l-3.82-13.46c-2.55.59-4.17.87-4.87.87ZM330.47,73.4v-2.02h-18.18v5.36c-4.85-3.58-9.6-5.36-14.29-5.36-9.96,0-17.85,3.36-23.69,10.06-5.85,6.7-8.77,14.5-8.77,23.42s2.92,16.74,8.77,23.44c5.84,6.7,13.73,10.03,23.69,10.03,6.51-.43,11.27-2.24,14.29-5.41v5.49h18.18v-62.86s0-2.16,0-2.16ZM312.3,109.69c-.65,5.59-3.33,9.44-8.06,11.58-.13.06-.24.11-.37.16-.41.17-.86.32-1.29.45-1.7.53-3.93.92-6.47.63-.2-.04-.42-.06-.61-.1-.23-.02-.45-.04-.64-.1-1.1-.24-2.13-.55-3.08-.92-.04-.02-.07-.02-.11-.03-4-1.6-6.89-4.34-8.68-8.23-.05-.12-.08-.25-.14-.35-.3-.71-.54-1.46-.78-2.24-1.02-3.57-.8-7.04-.32-9.59.19-.94.39-1.9.66-2.77.03-.11.07-.23.1-.31,1.93-5.78,5.92-9.26,11.9-10.53.45-.1.85-.15,1.28-.2.48-.08.97-.13,1.48-.17,1.02-.05,1.92,0,2.75.1,7.4,1.53,11.57,5.44,12.38,11.77v10.85Z"></path></svg>