<svg xmlns="http://www.w3.org/2000/svg" id="Final" viewBox="0 0 510 210"><defs><style>      .cls-1 {        fill: none;      }      .cls-2 {        fill: #824bb0;      }    </style></defs><rect class="cls-1" width="510" height="210"></rect><g><path class="cls-2" d="M2.83,115.35V45.72h20.69v70.36c0,4.11,1.93,5.32,3.37,5.32.72,0,1.2,0,2.17-.24l2.41,15.24c-2.17.97-5.53,1.69-10.11,1.69-13.96,0-18.53-9.19-18.53-22.74Z"></path><path class="cls-2" d="M66.65,71.99c-9.4,0-17.1,3.1-23.08,9.3-6,6.22-8.99,14.17-8.99,23.91s2.99,17.74,8.99,23.93c5.97,6.21,13.68,9.32,23.08,9.32,12.83,0,21.6-3.33,26.3-9.96l-10.27-10.65c-4.7,3.55-10.03,5.32-16.03,5.32-3.42,0-6.41-1-8.98-3-2.57-1.99-4.07-4.76-4.49-8.3h44.26v-6.66c0-9.74-2.77-17.7-8.34-23.91-5.55-6.21-13.04-9.3-22.45-9.3ZM53.82,98.58c0-3.55,1.28-6.32,3.85-8.31,2.57-1.99,5.56-2.99,8.98-2.99,3.43,0,6.42,1,8.99,2.99,2.57,1.99,3.85,4.76,3.85,8.31h-25.66ZM209.04,71.99c-6.57,0-12.15,2.44-16.74,7.33v-7.39h-17.95v66.52h17.95s0-37.48,0-37.48c.1-1.94.64-5.26,2.85-8.19,2.34-3.09,5.02-4.8,8.06-5.02,3.89.16,6.88,1.17,8.97,3.13l2.82-18.34c-1.89-.35-3.86-.54-5.97-.54ZM149.1,76.11v1.17c-4.79-3.55-9.48-5.32-14.11-5.32-9.83,0-17.63,3.33-23.39,9.98-5.77,6.65-8.66,14.39-8.66,23.24s2.88,16.61,8.66,23.26c5.77,6.64,13.56,9.96,23.39,9.96,6.43-.43,11.12-2.22,14.11-5.37v5.45h17.95v-66.53h-17.95v4.15ZM149.1,109.98c-.64,5.54-3.28,9.37-7.96,11.49-.13.06-.23.11-.37.16-.4.17-.84.32-1.27.45-1.67.53-3.88.92-6.39.63-.2-.04-.41-.06-.6-.1-.23-.02-.44-.04-.64-.1-1.09-.24-2.11-.55-3.05-.92-.04-.02-.07-.02-.1-.03-3.95-1.59-6.81-4.31-8.57-8.17-.05-.12-.08-.25-.14-.35-.3-.7-.54-1.44-.77-2.22-1-3.55-.79-6.99-.32-9.52.19-.94.38-1.89.65-2.74.03-.11.07-.22.1-.3,1.91-5.73,5.84-9.19,11.75-10.45.44-.1.84-.15,1.26-.19.48-.08.96-.13,1.47-.17,1.01-.05,1.9,0,2.71.1,7.31,1.52,11.42,5.4,12.22,11.68v10.77Z"></path><path class="cls-2" d="M272.32,81.05c-4.28-4.95-10.49-7.42-18.62-7.42-5.96,0-11.1,1.94-15.42,5.81v-5.88h-17.99v64.62h17.99v-37.6s-.06-3.43,1.76-6.37c1.04-1.57,4.8-6.23,11.66-4.76.45.11.88.22,1.3.36.18.06.36.09.55.16,1.6.62,2.94,1.52,4,2.69,2.13,2.37,3.21,5.71,3.21,10.01v35.51h17.98v-40.02c0-6.46-2.14-12.16-6.42-17.11Z"></path><path class="cls-2" d="M394.67,71.99c-6.58,0-12.15,2.44-16.74,7.33v-4.12s0-3.27,0-3.27h-17.95s0,2.01,0,2.01v1.27s0,63.24,0,63.24h17.95s0-37.48,0-37.48c.1-1.94.64-5.26,2.85-8.19,2.34-3.09,5.02-4.8,8.06-5.02,3.89.16,6.88,1.17,8.97,3.13l2.82-18.34c-1.89-.35-3.86-.54-5.97-.54Z"></path><path class="cls-2" d="M434.66,71.27c-9.57,0-17.56,3.22-23.97,9.66-6.41,6.45-9.62,14.47-9.62,24.09s3.2,17.6,9.62,24.06c6.41,6.47,14.4,9.7,23.97,9.7s17.56-3.22,23.97-9.66c6.41-6.45,9.61-14.47,9.61-24.1s-3.2-17.64-9.61-24.09c-6.41-6.44-14.4-9.66-23.97-9.66ZM446.78,117.7c-3.11,3.37-7.18,5.06-12.19,5.06s-9.07-1.68-12.18-5.06c-3.11-3.38-4.68-7.58-4.68-12.61s1.57-9.24,4.68-12.64c3.11-3.41,7.16-5.1,12.12-5.1s9.13,1.7,12.25,5.1c3.12,3.4,4.67,7.61,4.67,12.64s-1.55,9.24-4.67,12.61Z"></path><path class="cls-2" d="M323.36,89.34h-13.26v-23.75h13.26c6.19,0,10.74,5.15,10.74,11.88s-4.55,11.88-10.74,11.88M321.23,45.79l-31.37-.07.02,92.45h20.21v-29.03h11.6c17.4-.13,31.41-14.41,31.28-31.91-.13-17.49-14.34-31.57-31.75-31.44"></path></g></svg>