<svg xmlns="http://www.w3.org/2000/svg" id="Final" viewBox="0 0 754 210"><defs><style>      .cls-1 {        fill: none;      }      .cls-2 {        fill: #394a58;      }    </style></defs><rect class="cls-1" width="754" height="210"></rect><g><g><path class="cls-2" d="M190.58,46.3h18.2c1.36,0,2.04.74,2.04,2.21v71.68c0,.57.11.98.32,1.23.21.25.57.37,1.08.37h40.6c1.53,0,2.29.61,2.29,1.84v11.68c0,.66-.21,1.19-.64,1.6-.43.41-1.02.61-1.78.61h-61.34c-1.02,0-1.74-.2-2.16-.61-.43-.41-.64-1.07-.64-1.97V48.64c0-1.56.68-2.34,2.04-2.34Z"></path><path class="cls-2" d="M288.39,121.61c3.18,2.83,7.15,4.24,11.9,4.24,3.05,0,5.87-.63,8.46-1.91,2.59-1.27,5.2-3.38,7.83-6.33.34-.33.68-.49,1.02-.49.25,0,.68.12,1.27.37l9.16,3.69c.59.25.89.66.89,1.23,0,.41-.17.82-.51,1.23-4.07,5.58-8.44,9.49-13.11,11.74-4.67,2.25-10.48,3.38-17.44,3.38-6.53,0-12.43-1.39-17.69-4.18-5.26-2.79-9.38-6.66-12.34-11.62-2.97-4.96-4.45-10.64-4.45-17.03,0-6.89,1.53-12.97,4.58-18.26,3.05-5.29,7.19-9.36,12.41-12.23,5.22-2.87,10.92-4.3,17.12-4.3s12.17,1.37,17.18,4.12c5.01,2.75,8.91,6.7,11.71,11.87,2.8,5.16,4.2,11.31,4.2,18.44,0,1.07-.11,1.8-.32,2.21-.21.41-.83.66-1.85.74h-43.27c-1.02,0-1.53.66-1.53,1.97,0,4.59,1.59,8.3,4.77,11.13ZM309.2,98.19c.93,0,1.53-.1,1.78-.31.25-.2.38-.68.38-1.41,0-2.13-.51-4.26-1.53-6.39-1.02-2.13-2.5-3.89-4.45-5.29-1.95-1.39-4.33-2.09-7.13-2.09-4.24,0-7.72,1.44-10.44,4.3-2.72,2.87-4.03,6.56-3.95,11.07l25.33.12Z"></path><path class="cls-2" d="M358.19,138.76c-6.36,0-11.41-1.66-15.15-4.98-3.73-3.32-5.6-7.64-5.6-12.97,0-6.89,3.27-12.42,9.8-16.6,6.53-4.18,15.53-6.39,26.98-6.64l4.58-.37c.51,0,.95-.14,1.33-.43.38-.29.57-.72.57-1.29v-2.58c0-3.2-.93-5.66-2.8-7.38-1.87-1.72-4.54-2.58-8.02-2.58-5.94,0-10.35,2.46-13.24,7.38-.34.82-.89,1.23-1.65,1.23-.43,0-.81-.04-1.15-.12l-12.73-2.83c-.76-.16-1.15-.62-1.15-1.35,0-.49.17-1.11.51-1.84,2.04-4.75,5.66-8.32,10.88-10.7,5.22-2.38,11.69-3.57,19.41-3.57,10.09,0,17.39,1.78,21.89,5.35,4.5,3.57,6.74,8.63,6.74,15.19v43.16c0,.98-.17,1.68-.51,2.09-.34.41-.98.61-1.91.61h-13.11c-.85,0-1.47-.29-1.85-.86-.38-.57-.66-1.43-.83-2.58l-.13-2.7c-.09-.74-.42-1.11-1.02-1.11-.34,0-.98.33-1.91.98-5.6,5-12.26,7.5-19.98,7.5ZM380.34,106.92c-.25-.33-.76-.49-1.52-.49l-3.57.25c-4.92.25-9.27,1.37-13.04,3.38-3.78,2.01-5.66,4.78-5.66,8.3,0,2.46.89,4.41,2.67,5.84,1.78,1.43,4.24,2.15,7.38,2.15,3.9,0,7.21-1.11,9.93-3.32,2.8-2.13,4.2-4.3,4.2-6.52v-7.99c0-.74-.13-1.27-.38-1.6Z"></path><path class="cls-2" d="M412.66,135.08v-60.37c0-1.56.68-2.34,2.04-2.34h14.89c1.36,0,2.04.7,2.04,2.09v7.26c0,.33.08.57.26.74.17.16.34.25.51.25.26,0,.59-.2,1.02-.61,2.54-3.28,5.56-5.92,9.04-7.93,3.48-2.01,6.79-3.01,9.93-3.01s4.58.7,4.58,2.09v14.26c0,.57-.17,1.03-.51,1.35-.34.33-.81.41-1.4.25-2.72-.65-5.68-.98-8.91-.98-2.12,0-4.26.51-6.43,1.54-2.16,1.03-3.94,2.38-5.34,4.06-1.4,1.68-2.1,3.38-2.1,5.1v35.9c0,1.89-1.1,2.83-3.31,2.83h-13.62c-1.78,0-2.67-.82-2.67-2.46Z"></path><path class="cls-2" d="M467.52,136.98c-.43-.37-.64-1-.64-1.91v-60.37c0-1.56.68-2.34,2.04-2.34h15.4c1.27,0,1.91.7,1.91,2.09v6.02c0,.66.21.98.64.98.25,0,.55-.16.89-.49,3.48-3.2,6.96-5.64,10.44-7.32,3.48-1.68,7.17-2.52,11.07-2.52,6.19,0,11.09,1.76,14.7,5.29,3.61,3.52,5.41,8.24,5.41,14.14v44.02c0,1.97-1.02,2.95-3.05,2.95h-14.13c-.94,0-1.57-.18-1.91-.55-.34-.37-.51-1-.51-1.91v-41.56c0-2.79-.79-4.94-2.35-6.46-1.57-1.52-3.88-2.27-6.94-2.27-2.55,0-4.9.61-7.06,1.84-2.16,1.23-4.48,3.16-6.94,5.78v42.3c0,.98-.26,1.7-.76,2.15-.51.45-1.36.68-2.55.68h-13.62c-.93,0-1.61-.18-2.04-.55Z"></path><path class="cls-2" d="M612.41,95.3c-6.32,4.88-14.66,7.32-25.01,7.32h-19.09c-.93,0-1.4.45-1.4,1.35v30.74c0,1.89-1.1,2.83-3.31,2.83h-16.29c-1.02,0-1.72-.2-2.1-.61-.38-.41-.57-1.02-.57-1.84V48.64c0-1.56.68-2.34,2.04-2.34h38.18c7.04,0,13.34,1.05,18.9,3.14,5.56,2.09,9.97,5.27,13.24,9.53,3.26,4.26,4.9,9.51,4.9,15.74,0,8.85-3.16,15.72-9.48,20.6ZM594.78,64.87c-2.8-2.13-6.58-3.2-11.33-3.2h-14.13c-.85,0-1.46.17-1.84.49-.38.33-.57.9-.57,1.72v21.03c0,.82.13,1.41.38,1.78.25.37.72.55,1.4.55h15.65c4.5,0,8.06-1.15,10.69-3.44,2.63-2.29,3.95-5.45,3.95-9.47s-1.4-7.33-4.2-9.47Z"></path><path class="cls-2" d="M633.73,135.08v-60.37c0-1.56.68-2.34,2.04-2.34h14.89c1.36,0,2.04.7,2.04,2.09v7.26c0,.33.08.57.26.74.17.16.34.25.51.25.26,0,.59-.2,1.02-.61,2.54-3.28,5.56-5.92,9.04-7.93,3.48-2.01,6.79-3.01,9.93-3.01s4.58.7,4.58,2.09v14.26c0,.57-.17,1.03-.51,1.35-.34.33-.81.41-1.4.25-2.72-.65-5.68-.98-8.91-.98-2.12,0-4.26.51-6.43,1.54-2.16,1.03-3.94,2.38-5.34,4.06-1.4,1.68-2.1,3.38-2.1,5.1v35.9c0,1.89-1.1,2.83-3.31,2.83h-13.62c-1.78,0-2.67-.82-2.67-2.46Z"></path><path class="cls-2" d="M699.08,134.52c-5.13-2.83-9.14-6.78-12.03-11.87-2.89-5.08-4.33-10.86-4.33-17.34s1.46-12.66,4.39-17.83c2.93-5.16,7-9.18,12.22-12.05,5.22-2.87,11.09-4.3,17.63-4.3s12.64,1.46,17.82,4.37c5.17,2.91,9.18,6.95,12.03,12.11,2.84,5.16,4.26,11.03,4.26,17.58s-1.44,12.25-4.33,17.34c-2.88,5.08-6.92,9.06-12.09,11.93-5.18,2.87-11.12,4.3-17.82,4.3s-12.62-1.41-17.75-4.24ZM727.59,120.87c2.42-3.57,3.63-8.87,3.63-15.92s-1.21-12.52-3.63-16.17c-2.42-3.65-5.96-5.47-10.63-5.47s-8.23,1.82-10.69,5.47c-2.46,3.65-3.69,9.04-3.69,16.17s1.23,12.25,3.69,15.86c2.46,3.61,6.02,5.41,10.69,5.41s8.21-1.78,10.63-5.35Z"></path><g><path class="cls-2" d="M555.77,205.11c-2.86-1.72-5.06-4.14-6.61-7.26-1.55-3.12-2.32-6.75-2.32-10.87s.81-7.94,2.44-11.12c1.62-3.18,3.91-5.62,6.86-7.34,2.95-1.72,6.35-2.57,10.21-2.57,2.95,0,5.64.55,8.08,1.64,2.44,1.1,4.42,2.53,5.95,4.3,1.53,1.77,2.49,3.66,2.86,5.67.08.22.11.49.11.82,0,.4-.25.62-.74.66l-7.48,1.1c-.3,0-.51-.06-.62-.19-.11-.13-.21-.36-.28-.68-.38-1.9-1.27-3.47-2.66-4.71-1.4-1.24-3.21-1.86-5.44-1.86-2.91,0-5.12,1.11-6.63,3.34-1.51,2.23-2.27,5.77-2.27,10.63s.79,8.73,2.38,10.96c1.59,2.23,3.87,3.34,6.86,3.34,2.27,0,4.08-.59,5.44-1.78,1.36-1.19,2.25-2.67,2.67-4.46l.11-1.59c.04-.07.06-.18.06-.33,0-.33-.21-.49-.62-.49h-6.86c-.3,0-.53-.07-.68-.22s-.23-.38-.23-.71v-4.11c0-.51.3-.77.91-.77l15.14.05c.53,0,.94.12,1.22.36.28.24.43.56.43.96v18.46c0,.26-.08.46-.23.6-.15.15-.36.22-.62.22h-1.82c-.64,0-1.13-.29-1.47-.88l-1.64-3.94c-.11-.26-.3-.24-.57.05-1.32,1.57-2.9,2.85-4.73,3.84-1.83.98-4.23,1.48-7.17,1.48-3.82,0-7.15-.86-10.01-2.58Z"></path><path class="cls-2" d="M625.2,206.15c0,.29-.1.53-.28.71-.19.18-.42.27-.68.27h-8.33c-.64,0-1.06-.33-1.25-.99l-6.12-15.34c-.11-.29-.28-.49-.51-.6-.23-.11-.59-.16-1.08-.16h-5.39c-.23,0-.4.06-.51.19-.11.13-.17.27-.17.41v15.17c0,.47-.12.81-.37,1.01s-.63.3-1.16.3h-7.2c-.45,0-.77-.09-.94-.27s-.26-.46-.26-.82v-38.51c0-.69.3-1.04.91-1.04h17.69c5.1,0,9.05.97,11.85,2.9,2.8,1.94,4.2,4.69,4.2,8.27,0,2.67-.74,4.94-2.21,6.82-1.47,1.88-3.33,3.2-5.56,3.97-.3.11-.38.38-.23.82l7.48,16.38c.08.22.11.38.11.49ZM613.63,182.24c1.13-.9,1.7-2.2,1.7-3.92s-.58-3.09-1.73-4.03c-1.15-.93-2.71-1.4-4.68-1.4h-6.97c-.42,0-.7.06-.85.19-.15.13-.23.36-.23.69v8.87c0,.33.06.57.17.71.11.15.32.22.62.22h6.98c2.19,0,3.86-.45,4.99-1.34Z"></path><path class="cls-2" d="M639.57,205.19c-2.93-1.66-5.18-4.04-6.75-7.15-1.57-3.1-2.35-6.79-2.35-11.06s.79-8.04,2.38-11.2c1.59-3.16,3.85-5.59,6.78-7.29,2.93-1.7,6.36-2.55,10.29-2.55s7.3.85,10.21,2.55c2.91,1.7,5.16,4.13,6.75,7.29,1.59,3.16,2.38,6.88,2.38,11.15s-.78,7.91-2.35,11.04c-1.57,3.12-3.81,5.53-6.72,7.2-2.91,1.68-6.33,2.52-10.26,2.52s-7.42-.83-10.35-2.49ZM656.75,197.66c1.42-2.19,2.13-5.73,2.13-10.63s-.73-8.66-2.18-10.96c-1.46-2.3-3.71-3.45-6.78-3.45s-5.43,1.15-6.89,3.45c-1.46,2.3-2.18,5.95-2.18,10.96s.72,8.44,2.15,10.63c1.44,2.19,3.74,3.29,6.92,3.29s5.42-1.1,6.83-3.29Z"></path><path class="cls-2" d="M704.8,204.04c-2.91,2.43-7.11,3.64-12.59,3.64-6.01,0-10.34-1.37-12.98-4.11-2.65-2.74-3.97-6.9-3.97-12.49v-23.5c0-.33.09-.59.26-.79.17-.2.39-.3.65-.3h8.16c.57,0,.85.33.85.99v24.81c0,2.96.65,5.12,1.96,6.49,1.3,1.37,3.24,2.06,5.81,2.06,5.37,0,8.05-2.9,8.05-8.71v-24.6c0-.69.28-1.04.85-1.04h6.46c.57,0,.85.33.85.99v24.6c0,5.55-1.46,9.54-4.37,11.97Z"></path><path class="cls-2" d="M746.85,188.32c-2.82,2.17-6.53,3.26-11.14,3.26h-8.5c-.42,0-.62.2-.62.6v13.69c0,.84-.49,1.26-1.47,1.26h-7.26c-.45,0-.77-.09-.94-.27s-.26-.46-.26-.82v-38.51c0-.69.3-1.04.91-1.04h17.01c3.14,0,5.94.47,8.42,1.4,2.48.93,4.44,2.35,5.9,4.25,1.45,1.9,2.18,4.24,2.18,7.01,0,3.94-1.41,7-4.22,9.18ZM738.99,174.76c-1.25-.95-2.93-1.42-5.05-1.42h-6.29c-.38,0-.65.07-.82.22-.17.15-.25.4-.25.77v9.37c0,.37.06.63.17.79.11.16.32.25.62.25h6.98c2,0,3.59-.51,4.76-1.53,1.17-1.02,1.76-2.43,1.76-4.22s-.62-3.27-1.87-4.22Z"></path></g></g><g><polygon class="cls-2" points="28.97 46.21 2.83 146.11 41.85 146.11 67.98 46.21 28.97 46.21"></polygon><polygon class="cls-2" points="123.1 65.38 109.77 115.74 148.79 115.74 162.13 65.38 123.1 65.38"></polygon><polygon class="cls-2" points="85.57 19.34 48.47 161.53 87.42 161.53 124.53 19.34 85.57 19.34"></polygon></g></g></svg>