<svg xmlns="http://www.w3.org/2000/svg" id="Final" viewBox="0 0 510 210"><defs><style>      .cls-1 {        fill: none;      }      .cls-2 {        fill: #00a1de;      }    </style></defs><rect class="cls-1" width="510" height="210"></rect><g><path class="cls-2" d="M91.06,120.74c-8.66,0-14.94-6.13-14.94-15.92s6.28-15.92,14.94-15.92,14.94,6.13,14.94,15.92-6.28,15.92-14.94,15.92M36.61,120.74c-8.66,0-14.94-6.13-14.94-15.92s6.28-15.92,14.94-15.92,14.94,6.13,14.94,15.92-6.28,15.92-14.94,15.92M124.84,137.44V46.08h-18.83v32.24c-4.15-4.96-10.3-7.96-18.71-7.96-9.45,0-17.94,4.96-23.46,12.87-5.52-7.91-14.01-12.87-23.46-12.87-8.41,0-14.56,3-18.71,7.96v-6.13H2.83v91.37h18.83v-32.24c4.14,4.96,10.3,7.96,18.71,7.96,9.45,0,17.94-4.96,23.46-12.87,5.52,7.91,14.01,12.87,23.46,12.87,8.41,0,14.56-3,18.71-7.96v6.13h18.83Z"></path><path class="cls-2" d="M148.52,83.8v-11.62h-18.83v65.26h.9l17.94-11.89v-17.61c0-12.92,11.05-16.18,18.83-14.88v-22.19c-7.91,0-16.32,4.18-18.83,12.92"></path><path class="cls-2" d="M293.1,120.21c-8.16,0-14.44-6.13-14.44-15.4s6.28-15.4,14.44-15.4,14.44,6.13,14.44,15.4-6.28,15.4-14.44,15.4M204.89,89.15h-13.18v-23.49h13.18c6.15,0,10.67,5.09,10.67,11.75s-4.52,11.75-10.67,11.75M293.1,70.35c-10.2,0-19.29,4.59-25.38,11.98v-11.46c-7.91,0-16.32,4.18-18.83,12.92v-11.62h-13.67c-2.38-14.85-14.79-26.1-30.34-26.1h-33.27v91.37h20.09v-28.71h13.18c10.56,0,19.66-5.19,25.17-13.17v41.88h1.13l17.71-11.74v-17.76c0-9.83,6.4-14.06,12.88-14.95-1.26,3.67-1.95,7.64-1.95,11.82,0,19.45,14.82,34.46,33.27,34.46s33.27-15.01,33.27-34.46-14.81-34.46-33.27-34.46"></path></g></svg>