<svg xmlns="http://www.w3.org/2000/svg" id="Final" viewBox="0 0 510 210"><defs><style>      .cls-1 {        fill: #007d57;      }      .cls-2 {        fill: none;      }    </style></defs><rect class="cls-2" width="510" height="210"></rect><g><g><path class="cls-1" d="M314.86,105.22c-7.25,0-13.31,2.43-18.16,7.28-4.86,4.86-7.29,10.91-7.29,18.16s2.43,13.26,7.29,18.14c4.86,4.87,10.91,7.31,18.16,7.31s13.3-2.43,18.16-7.28c4.86-4.86,7.28-10.91,7.28-18.16s-2.43-13.3-7.28-18.16c-4.86-4.86-10.91-7.28-18.16-7.28ZM324.04,140.22c-2.36,2.54-5.44,3.81-9.23,3.81s-6.87-1.27-9.23-3.81c-2.36-2.55-3.55-5.72-3.55-9.51s1.19-6.96,3.55-9.52c2.36-2.57,5.42-3.85,9.18-3.85s6.92,1.28,9.28,3.85c2.36,2.56,3.54,5.74,3.54,9.52s-1.18,6.96-3.54,9.51Z"></path><path class="cls-1" d="M271.04,45.62c-3.33-3.82-8.15-5.74-14.47-5.74-4.63,0-8.62,1.5-11.97,4.49v-4.55h-13.97v49.95h13.97v-29.06s-.05-2.65,1.37-4.92c.81-1.21,3.73-4.82,9.06-3.68.35.08.69.17,1.01.28.14.05.28.07.42.12,1.25.48,2.28,1.18,3.11,2.08,1.66,1.83,2.5,4.41,2.5,7.74v27.44h13.97v-30.93c0-4.99-1.66-9.4-4.99-13.22Z"></path><path class="cls-1" d="M461.86,139.36c-3,2.99-6.32,4.49-9.98,4.49s-6.66-1.33-8.98-3.99c-2.33-2.66-3.49-5.82-3.49-9.48s1.25-6.82,3.74-9.48c2.5-2.66,5.41-3.99,8.73-3.99,3.65,0,6.98,1.5,9.98,4.5l8.71-8.72c-5.07-4.82-11.28-7.25-18.64-7.25-6.68,0-12.52,2.08-17.51,6.24-1.4,1.17-2.57,2.43-3.58,3.79,0,0,0,0-.01-.02,0,0-.16.23-.43.65-1.2,1.76-2.08,3.68-2.65,5.75-1.47,4.41-2.42,10.71.16,17.7.62,1.98,1.54,3.79,2.73,5.46.06.11.12.21.19.32v-.03c1.02,1.36,2.2,2.64,3.6,3.8,4.99,4.16,10.81,6.24,17.46,6.24,7.37,0,13.59-2.44,18.69-7.25l-8.71-8.72Z"></path><path class="cls-1" d="M84.03,40.06c-5.12,0-9.47,1.83-13.03,5.49v-5.54h-13.97v49.95h13.97v-28.15c.07-1.46.49-3.94,2.21-6.15,1.82-2.34,3.9-3.61,6.27-3.77,3.03.1,5.36.88,6.99,2.35l2.19-13.77c-1.46-.27-3.01-.4-4.64-.4Z"></path><path class="cls-1" d="M284.35,105.58c-5.12,0-9.47,1.83-13.03,5.49v-5.54h-13.97v49.95h13.97v-28.15c.07-1.46.49-3.94,2.21-6.15,1.82-2.34,3.9-3.61,6.27-3.77,3.03.1,5.36.88,6.99,2.35l2.19-13.77c-1.46-.27-3.01-.4-4.64-.4Z"></path><path class="cls-1" d="M45.99,47.44c-4.49-4.99-10.57-7.49-18.21-7.49-3.59,0-7.25,1.33-10.97,3.99v-3.99H2.83v70.91l13.97.04v-25.09c2.33,2.36,5.98,3.71,10.97,4.04,7.65,0,13.72-2.5,18.21-7.49,4.49-4.99,6.74-10.81,6.74-17.46s-2.25-12.47-6.74-17.46ZM32.65,77.18s-.06.02-.08.03c-.73.28-1.53.51-2.36.69-.17.04-.34.07-.5.09-.15.03-.31.04-.46.06-1.96.22-3.66-.06-4.97-.46-.34-.11-.68-.22-.99-.35-.1-.04-.19-.08-.29-.12-3.63-1.59-5.7-4.47-6.19-8.62v-8.09c.62-4.72,3.82-7.63,9.52-8.78.62-.07,1.32-.11,2.1-.07.39.03.77.07,1.14.13.32.04.64.07.98.14,4.59.95,7.64,3.56,9.14,7.85.02.07.05.15.08.23.21.65.37,1.35.51,2.07.36,1.9.52,4.47-.25,7.14-.18.57-.37,1.14-.6,1.65-.04.08-.07.18-.11.26-1.37,2.9-3.59,4.95-6.66,6.13Z"></path><path class="cls-1" d="M246.55,112.96c-4.49-4.99-10.57-7.49-18.21-7.49-3.59,0-7.25,1.33-10.97,3.99v-3.99h-13.97v70.91l13.97.04v-25.09c2.33,2.36,5.98,3.71,10.97,4.04,7.65,0,13.72-2.5,18.21-7.49,4.49-4.99,6.74-10.81,6.74-17.46s-2.25-12.47-6.74-17.46ZM233.21,142.69s-.06.02-.08.03c-.73.28-1.53.51-2.36.69-.17.04-.34.07-.5.09-.15.03-.31.04-.46.06-1.96.22-3.66-.06-4.97-.46-.34-.11-.68-.22-.99-.35-.1-.04-.19-.08-.29-.12-3.63-1.59-5.7-4.47-6.19-8.62v-8.09c.62-4.72,3.82-7.63,9.52-8.78.62-.07,1.32-.11,2.1-.07.39.03.77.07,1.14.13.32.04.64.07.98.14,4.59.95,7.64,3.56,9.14,7.85.02.07.05.15.08.23.21.65.37,1.35.51,2.07.36,1.9.52,4.47-.25,7.14-.18.57-.37,1.14-.6,1.65-.04.08-.07.18-.11.26-1.37,2.9-3.59,4.95-6.66,6.13Z"></path><path class="cls-1" d="M88.18,64.81c0-7.23,2.3-13.13,6.91-17.74,4.59-4.6,10.51-6.9,17.74-6.9,7.23,0,12.99,2.3,17.26,6.9,4.28,4.61,6.41,10.51,6.41,17.74v4.94s-34.02,0-34.02,0c.32,2.63,1.48,4.68,3.45,6.16,1.97,1.48,4.27,2.23,6.9,2.23,4.61,0,8.71-1.32,12.32-3.95l7.89,7.9c-3.62,4.93-10.35,7.39-20.22,7.39-7.22,0-13.15-2.31-17.74-6.91-4.61-4.6-6.91-10.52-6.91-17.75ZM119.74,53.73c-1.97-1.48-4.27-2.22-6.91-2.22-2.63,0-4.93.75-6.9,2.22-1.97,1.48-2.96,3.53-2.96,6.17h19.72c0-2.63-.98-4.69-2.96-6.17Z"></path><path class="cls-1" d="M375.19,130.68c0-7.13,2.27-12.95,6.81-17.49,4.53-4.54,10.37-6.8,17.49-6.8s12.81,2.26,17.01,6.8c4.22,4.55,6.32,10.37,6.32,17.49v4.87h-33.54c.32,2.59,1.46,4.62,3.4,6.07,1.95,1.46,4.21,2.19,6.8,2.19,4.55,0,8.59-1.3,12.15-3.89l7.78,7.79c-3.56,4.86-10.21,7.29-19.93,7.29-7.12,0-12.96-2.27-17.49-6.81-4.55-4.53-6.81-10.37-6.81-17.5ZM406.3,119.75c-1.94-1.46-4.21-2.19-6.81-2.19s-4.86.73-6.8,2.19c-1.95,1.46-2.92,3.48-2.92,6.08h19.44c0-2.6-.97-4.62-2.92-6.08Z"></path><path class="cls-1" d="M178.37,64.81c0-7.23,2.3-13.13,6.91-17.74,4.59-4.6,10.51-6.9,17.74-6.9,7.23,0,12.99,2.3,17.26,6.9,4.28,4.61,6.41,10.51,6.41,17.74v4.94s-34.02,0-34.02,0c.32,2.63,1.48,4.68,3.45,6.16,1.97,1.48,4.27,2.23,6.9,2.23,4.61,0,8.71-1.32,12.32-3.95l7.89,7.9c-3.62,4.93-10.35,7.39-20.22,7.39-7.22,0-13.15-2.31-17.74-6.91-4.61-4.6-6.91-10.52-6.91-17.75ZM209.93,53.73c-1.97-1.48-4.27-2.22-6.91-2.22-2.63,0-4.93.75-6.9,2.22s-2.96,3.53-2.96,6.17h19.72c0-2.63-.98-4.69-2.96-6.17Z"></path><path class="cls-1" d="M163.29,89.16h-12.33s-16.02-49.36-16.02-49.36h12.97s10.45,29.14,10.45,29.14l10.21-29.14h12.43s-17.7,49.36-17.7,49.36Z"></path><path class="cls-1" d="M308.9,78.64c-1.91.43-3.12.63-3.65.63-1.72,0-3.12-.53-4.2-1.59-1.08-1.05-1.63-2.86-1.63-5.46v-19.1h7.29v-10.99h-7.29v-24.31l-13.66,13.65v10.67h-7.29v10.99h7.29v21.04c0,4.86,1.61,8.84,4.87,11.91,3.24,3.08,7.6,4.61,13.11,4.61,3.02,0,5.69-.76,8.02-2.28l-2.86-9.77Z"></path><path class="cls-1" d="M372.55,144.15c-1.91.43-3.12.63-3.65.63-1.72,0-3.12-.53-4.2-1.59-1.08-1.05-1.63-2.86-1.63-5.46v-19.1h7.29v-10.99h-7.29v-24.31l-13.66,13.65v10.67h-7.29v10.99h7.29v21.04c0,4.86,1.61,8.84,4.87,11.91,3.24,3.08,7.6,4.61,13.11,4.61,3.02,0,5.69-.76,8.02-2.28l-2.86-9.77Z"></path><path class="cls-1" d="M503.78,143.82c-1.91.43-3.12.63-3.65.63-1.72,0-3.12-.53-4.2-1.59-1.08-1.05-1.63-2.86-1.63-5.46v-19.1h7.29v-10.99h-7.29v-24.31l-13.66,13.65v10.67h-7.29v10.99h7.29v21.04c0,4.86,1.61,8.84,4.87,11.91,3.24,3.08,7.6,4.61,13.11,4.61,3.02,0,5.69-.76,8.02-2.28l-2.86-9.77Z"></path></g><polygon points="355.01 60.15 342.32 60.15 342.32 47.45 332.16 47.45 332.16 60.15 319.47 60.15 319.47 70.3 332.16 70.3 332.16 83 342.32 83 342.32 70.3 355.01 70.3 355.01 60.15"></polygon></g></svg>