<?xml version="1.0" encoding="utf-8"?>
<!-- Generator: Adobe Illustrator 27.8.0, SVG Export Plug-In . SVG Version: 6.00 Build 0)  -->
<svg version="1.1" id="Layer_1" xmlns="http://www.w3.org/2000/svg" xmlns:xlink="http://www.w3.org/1999/xlink" x="0px" y="0px"
	 viewBox="0 0 1920 661.5" style="enable-background:new 0 0 1920 661.5;" xml:space="preserve">
<style type="text/css">
	.st0{fill:#EF860D;}
	.st1{fill:#193153;}
</style>
<g>
	<g>
		<g>
			<path id="Path_31_00000129201345971581311630000007743401025346422411_" class="st0" d="M195.3,150.3
				c0-82.6-67-149.6-149.6-149.6c-15.3,0-30.6,2.4-45.2,7.2V66C47,41,105,58.5,129.9,105c25,46.5,7.5,104.5-39,129.5
				c-28.3,15.2-62.2,15.2-90.5,0v58.2c14.6,4.7,29.9,7.1,45.2,7.2c15.8,0,31.5-2.5,46.5-7.5l64.4,123.9h60.2L139,267
				C174.5,238.6,195.3,195.7,195.3,150.3"/>
			<path id="Path_32_00000057131403729803016600000010348177360627628988_" class="st1" d="M594.9,414.3V10.1h58.9l220.8,315.7V10.1
				h56.9v404.2h-58.2L652.1,97.9v316.4H594.9z"/>
			<path id="Path_33_00000021813944611561112860000017524769891520446612_" class="st1" d="M1213.4,424.7
				c-27.9,0.2-55.6-5.4-81.3-16.3c-24.7-10.7-46.9-26.3-65.4-45.9c-18.7-19.7-33.5-42.8-43.6-68c-10.5-26.3-15.8-54.3-15.6-82.6
				c-0.3-28.3,5-56.4,15.6-82.6c10-25.2,24.8-48.1,43.6-67.6c18.7-19.3,41-34.8,65.7-45.5c25.7-11.1,53.4-16.6,81.3-16.2
				c55.4-0.6,108.6,21.8,147,61.8c18.9,19.5,33.8,42.5,43.9,67.6c10.5,26.3,15.8,54.3,15.6,82.6c0.3,28.3-5,56.4-15.6,82.6
				c-10.1,25.3-25,48.4-43.9,68c-18.7,19.4-41,35-65.7,45.9C1269.2,419.3,1241.4,424.8,1213.4,424.7 M1213.4,370
				c27.3,0.7,54.2-6.9,77.1-21.8c21.7-14.6,39.3-34.5,51.1-57.9c12.2-24.5,18.4-51.6,18.2-79c0.4-27.6-5.8-54.9-17.9-79.7
				c-11.4-23.4-29-43.2-50.7-57.5c-23.2-14.7-50.3-22.2-77.8-21.5c-27.3-0.7-54.1,6.8-77.1,21.5c-21.8,14.3-39.3,34.1-50.7,57.5
				c-12.1,24.8-18.3,52.1-17.9,79.7c-0.3,27.4,5.8,54.5,17.9,79c11.5,23.4,29,43.4,50.7,57.9C1159.2,363.1,1186.1,370.7,1213.4,370"
				/>
			
				<rect id="Rectangle_3_00000025415541232764566910000014176999539906857898_" x="1495.6" y="10.1" class="st1" width="58.2" height="404.2"/>
			<path id="Path_34_00000157275926424028339470000017409810652948554654_" class="st1" d="M1625.7,414.3V10.1h129.1
				c28.6-1.3,57,4.7,82.6,17.6c19,10.2,34.5,25.8,44.5,44.9c8.9,17.4,13.6,36.7,13.7,56.3c0.4,24.1-5.9,47.9-18.2,68.6
				c-13.2,20.7-33.1,36.3-56.3,44.2l94.6,172.6h-65.4l-86.8-165.6h-81.3v165.6H1625.7z M1682.3,200h77.7
				c20.7,1.5,41.2-5.2,56.9-18.9c13.3-13.3,20.4-31.6,19.5-50.4c1.1-19.4-6.4-38.3-20.5-51.7c-16-13.1-36.3-19.7-56.9-18.5h-76.4
				V200H1682.3z"/>
			<path id="Path_35_00000130604783395082747400000017141359782680210869_" class="st1" d="M510,62.1l27-51.7H284V414h226l27-52
				H343.5V233.4h150.2v-52H343.5V62.1H510z"/>
		</g>
	</g>
	<g>
		<path id="Path_61_00000165192993486531347170000001890482735487147913_" class="st1" d="M0,627.6v-99.1h31.3
			c5.7-0.2,11.4,0.8,16.7,2.8c4,1.6,7.6,4,10.5,7.2c2.5,2.8,4.4,6.1,5.5,9.7c1.1,3.3,1.6,6.8,1.6,10.3c0.2,5.8-1.3,11.6-4.3,16.6
			c-2.9,4.5-7,8-11.9,10.2c-5.5,2.4-11.4,3.5-17.4,3.4H14.1v38.9H0z M14.1,576.5h17.8c5.2,0.3,10.3-1.4,14.2-4.8
			c3.4-3.4,5.2-8.1,5-12.9c0.2-4.9-1.6-9.7-5.1-13.2c-3.8-3.4-8.9-5.2-14-4.9H14.1V576.5z"/>
		<path id="Path_68_00000031896072027956538920000013912893834641008572_" class="st1" d="M119,627.6l-0.3-8.3
			c-2.6,3.5-6.1,6.1-10.2,7.7c-4.1,1.7-8.5,2.6-13,2.6c-3.8,0-7.6-0.7-11.2-2.1c-8.2-2.8-13.4-10.8-12.9-19.5
			c-0.3-6.8,2.6-13.4,7.9-17.8c6.4-4.8,14.4-7.2,22.4-6.6c2.2,0,4.4,0.1,6.8,0.2c2.3,0.2,4.4,0.3,6.3,0.4c1.9,0.2,3.1,0.3,3.7,0.4
			v-2.5c0.4-4.2-1.4-8.4-4.7-11.1c-3.8-2.4-8.2-3.6-12.7-3.3c-4.2-0.2-8.5,0.6-12.4,2.2c-2.7,1.2-5.3,2.7-7.8,4.4l-6.2-9.1
			c8-6.1,17.9-9.2,27.9-8.6c7.5-0.4,15,1.9,20.9,6.5c5.3,4.6,8.1,11.4,7.7,18.3v42.8c0,1,0,2.2,0.1,3.6L119,627.6z M118.6,602.8
			v-7.9c-1.1-0.3-2.3-0.5-3.4-0.5c-1.8-0.1-3.8-0.3-6-0.4c-2.2-0.1-4.4-0.2-6.5-0.2c-3.9-0.2-7.8,0.5-11.4,2.2
			c-2.3,1.1-4.2,3-5.3,5.3c-0.9,2-1.4,4.1-1.4,6.3c-0.2,3.3,1.3,6.5,3.9,8.5c3.1,2.1,6.9,3.2,10.7,3c3.3,0,6.6-0.8,9.6-2.3
			c2.8-1.4,5.2-3.5,7.1-6C117.6,608.4,118.6,605.6,118.6,602.8"/>
		<path id="Path_69_00000173864012088706230070000012650612896299809169_" class="st1" d="M162.9,627.6h-13.4v-64.8
			c0-0.9,0-2.3-0.1-4.3h12.8l0.4,11.1c1.3-1.9,2.9-3.6,4.5-5.2c2.2-2,4.6-3.7,7.3-4.9c3.4-1.5,7-2.2,10.7-2.1c1.4,0,2.7,0.1,4.1,0.3
			c1.2,0.2,2.4,0.5,3.5,0.9l-3,12.5c-2.2-0.8-4.5-1.1-6.8-1c-3.6,0-7.1,1-10.2,2.9c-3,1.9-5.5,4.5-7.2,7.7
			c-1.8,3.2-2.7,6.9-2.6,10.6L162.9,627.6z"/>
		<path id="Path_70_00000025414404004460915490000016001988843382592929_" class="st1" d="M212.6,605v-35.4h-12.5v-11.1h12.5v-22.6
			h13.4v22.6h20.2v11.1h-20.2v34c-0.4,4,0.5,8,2.6,11.4c1.8,2.1,4.6,3.3,7.4,3.1c2.2,0.1,4.4-0.3,6.5-1.2c1.9-0.9,3.5-2.1,5-3.6
			l6.1,8.2c-5.1,5.3-12.2,8.2-19.6,7.9c-6,0.5-11.9-1.7-16-6C213.9,618.1,212.1,611.6,212.6,605"/>
		<path id="Path_71_00000031914195299458182800000013860489618094045630_" class="st1" d="M323.8,629.7c-6.6,0.1-13.2-1.6-18.9-5
			c-5.4-3.2-9.9-7.8-13-13.4c-6.2-11.5-6.2-25.3,0-36.8c3.1-5.5,7.6-10,13-13.2c5.7-3.4,12.2-5.1,18.9-5c6.6-0.1,13.1,1.6,18.8,5
			c17.5,10.6,23.1,33.4,12.5,50.9c-3.1,5.1-7.4,9.4-12.5,12.5C336.9,628.1,330.4,629.8,323.8,629.7 M323.8,618.1
			c4.4,0.1,8.8-1.1,12.4-3.6c3.4-2.4,6.1-5.7,7.9-9.4c3.7-7.6,3.7-16.5,0-24.1c-1.8-3.8-4.5-7-7.9-9.4c-7.5-4.9-17.2-4.9-24.7,0
			c-3.4,2.4-6.2,5.6-7.9,9.4c-1.8,3.8-2.8,7.9-2.8,12.1c0,4.1,1,8.2,2.8,11.9c1.8,3.7,4.6,7,7.9,9.4
			C315.1,616.9,319.4,618.2,323.8,618.1"/>
		<path id="Path_72_00000078758404554299034440000004660907298996079243_" class="st1" d="M380.7,627.6v-57.9h-12.5v-11.1h12.5v-5.6
			c-0.2-5.3,1-10.6,3.4-15.3c2-3.7,5.1-6.8,8.9-8.8c3.6-1.9,7.7-2.8,11.7-2.8c3.7,0,7.3,0.6,10.8,1.7c3.6,1.2,7,3.2,9.7,5.9
			l-6.6,8.6c-3.2-2.9-7.4-4.5-11.7-4.6c-3.5-0.1-6.9,1.2-9.3,3.7c-2.7,3.7-3.9,8.2-3.5,12.8v4.4h19.7v11.1h-19.7v57.9L380.7,627.6z"
			/>
		<path id="Path_98_00000183225461890056993550000012280866737367138969_" class="st1" d="M633,627.7v-69.4c0-1-0.1-2.6-0.2-4.7
			h13.7l0.5,11.1c0.9-1.3,2.1-2.7,3.5-4.2c1.5-1.6,3.2-3.1,5.1-4.2c2.2-1.4,4.6-2.4,7.1-3.2c3-0.9,6.1-1.4,9.2-1.3
			c8.1-0.6,16,2.5,21.5,8.4c5,6.6,7.5,14.7,7,22.9v44.4h-14.4v-43.3c0.5-5.4-1.1-10.9-4.5-15.2c-3.3-3.4-7.9-5.1-12.6-4.9
			c-3.6-0.1-7.2,0.8-10.4,2.6c-2.7,1.6-5,3.9-6.6,6.6c-1.7,2.9-2.9,6-3.6,9.3c-0.7,3.5-1.1,7-1.1,10.6v34.4L633,627.7z"/>
		<path id="Path_99_00000041254551755722769570000013402103347233726868_" class="st1" d="M756.4,629.9c-5.4,0.1-10.8-1-15.8-3.1
			c-4.6-2-8.8-4.9-12.3-8.5c-14.8-15.5-14.8-39.9,0-55.4c3.5-3.6,7.7-6.5,12.3-8.5c10.1-4.1,21.3-4.1,31.4,0c4.7,2,8.9,4.9,12.4,8.5
			c15,15.4,15,40,0,55.4c-3.5,3.6-7.8,6.5-12.4,8.5C767.1,628.9,761.8,629.9,756.4,629.9 M756.4,617.5c3.6,0.1,7.1-0.7,10.4-2.3
			c3-1.5,5.6-3.5,7.8-6c2.1-2.5,3.8-5.5,4.9-8.6c1.1-3.2,1.7-6.6,1.7-9.9c0-3.3-0.6-6.6-1.7-9.8c-1.1-3.2-2.8-6.1-4.9-8.7
			c-2.2-2.5-4.8-4.6-7.8-6.2c-3.2-1.6-6.7-2.4-10.3-2.3c-3.6-0.1-7.1,0.7-10.4,2.3c-3,1.5-5.6,3.5-7.8,6c-2.1,2.5-3.8,5.5-4.9,8.6
			c-1.1,3.2-1.7,6.6-1.7,9.9c0,3.4,0.6,6.7,1.7,9.9c1.1,3.2,2.8,6.1,4.9,8.6c2.2,2.6,4.8,4.6,7.8,6.2
			C749.3,616.7,752.8,617.5,756.4,617.5"/>
		<path id="Path_100_00000004528114807562443480000012809283359598097317_" class="st1" d="M801.3,553.6h16.4l23.1,57.8l22.9-57.8
			h15.4l-31.8,74h-14.3L801.3,553.6z"/>
		<path id="Path_101_00000000926060044645558600000007279660616615302060_" class="st1" d="M495,591.6h0.2l0.1,0.2l19.5,35.9h16.4
			l-22.8-42l0.2-0.1c20.5-13.8,25.9-41.5,12.2-62c-10.5-15.6-29.5-22.9-47.7-18.5l-0.6,0.2v15.1l1.1-0.4
			c15.8-5.6,33.1,2.7,38.6,18.4c5.6,15.8-2.7,33.1-18.4,38.6c-6.5,2.3-13.7,2.3-20.2,0l-1.1-0.4v15.1l0.6,0.2
			c7.2,1.8,14.8,1.7,21.9-0.2"/>
		<path id="Path_102_00000008850062174238140020000016635382560972604324_" class="st1" d="M558.4,576.5c1-2.5,2.6-4.7,4.5-6.6
			c2-2,4.3-3.5,6.9-4.6c2.9-1.2,6-1.8,9.2-1.8c5.7-0.3,11.3,1.9,15.3,6c3.6,4.1,5.7,9.2,6,14.6h-43.7
			C556.7,581.5,557.3,578.9,558.4,576.5 M605.1,608.3L605.1,608.3c-2.6,2.5-5.6,4.6-8.8,6.1c-4.8,2.3-10.1,3.4-15.4,3.2
			c-3.1,0-6.2-0.6-9.1-1.7c-2.8-1.1-5.4-2.7-7.6-4.8c-2.2-2-4-4.5-5.3-7.2c-1.3-2.8-2.1-5.9-2.1-9.1h58.5c0-5.5-0.7-10.9-2.1-16.2
			c-1.3-5-3.5-9.7-6.4-13.9c-2.9-4.1-6.8-7.4-11.2-9.7c-5.1-2.6-10.7-3.8-16.4-3.7c-5.1-0.1-10.2,1-14.9,3
			c-4.4,1.9-8.4,4.7-11.7,8.2c-3.3,3.5-5.9,7.7-7.6,12.3c-1.8,4.9-2.7,10-2.6,15.2c-0.1,5.5,0.9,11,2.8,16.2c1.8,4.7,4.5,9,7.9,12.6
			c3.5,3.5,7.6,6.3,12.3,8.1c5,2,10.4,2.9,15.8,2.9c4.2,0.1,8.4-0.4,12.5-1.5c3.3-0.9,6.5-2.1,9.6-3.6c2.4-1.2,4.6-2.6,6.6-4.3
			c0.6-0.5,1.1-1,1.6-1.5L605.1,608.3z"/>
		<path id="Path_103_00000156561508262122457940000006765966134112213436_" class="st1" d="M1016,612.7l-0.1-0.2
			c-1.6,1.5-3.4,2.8-5.4,3.8c-2.2,0.9-4.5,1.4-6.8,1.3c-3,0.2-6-1.1-7.9-3.3c-2.2-3.7-3.2-8-2.8-12.3v-36.5h21.7v-11.9h-21.7v-24.2
			h-14.3v24.2h-13.4v11.9h13.4v37.9c-0.6,7.1,1.4,14.1,5.5,19.9c4.5,4.6,10.9,6.9,17.3,6.4c3.9,0.1,7.9-0.6,11.5-2
			c3.1-1.3,5.9-3.1,8.3-5.4L1016,612.7z"/>
		<path id="Path_104_00000148660209894538737130000016517271422179418785_" class="st1" d="M938.2,601.1c0,2.3-0.6,4.5-1.7,6.5
			c-1.2,2.1-2.7,4-4.6,5.6c-2,1.6-4.2,2.9-6.6,3.8c-2.5,1-5.2,1.4-7.9,1.4c-4.1,0.2-8.1-0.9-11.5-3.1c-2.8-2.2-4.4-5.6-4.1-9.1
			c0-1.7,0.3-3.4,0.8-5c0.6-1.8,1.6-3.5,3-4.8c1.7-1.6,3.7-2.8,5.9-3.6c3.2-1.1,6.5-1.5,9.8-1.4c1.7,0,3.5,0.1,5.3,0.2l5.1,0.3
			c1.6,0.1,3,0.2,4.2,0.4c1.2,0.2,2,0.3,2.5,0.4L938.2,601.1z M951.9,623.9V578c0.4-7.5-2.6-14.7-8.2-19.7
			c-6.4-4.9-14.4-7.4-22.5-6.9c-3.6,0-7.1,0.3-10.7,0.9c-2.8,0.5-5.6,1.3-8.3,2.2c-2.2,0.8-4.3,1.8-6.4,3c-1.3,0.8-2.5,1.6-3.7,2.5
			l5.2,9.5l0.6,0.9c2.6-1.8,5.4-3.4,8.3-4.7c4.2-1.7,8.8-2.5,13.4-2.3c4.8-0.3,9.6,1,13.6,3.6c3.6,2.9,5.5,7.3,5,11.9v2.6
			c-0.5-0.1-1.4-0.2-2.6-0.3c-1.2-0.1-2.8-0.2-4.5-0.3l-5.4-0.3c-1.9-0.1-3.7-0.2-5.4-0.2c-8.6-0.6-17.2,2-24.1,7.2
			c-5.6,4.8-8.7,11.8-8.4,19.1c-0.1,3.7,0.7,7.4,2.3,10.7c1.4,2.8,3.5,5.3,6,7.2c2.5,1.8,5.3,3.2,8.3,4c3,0.8,6.1,1.2,9.2,1.2
			c4.8,0,9.5-0.9,13.9-2.6c4.3-1.7,8.1-4.6,10.9-8.3l0.3,8.9h13.4C952.1,626.2,952,625,951.9,623.9"/>
		<path id="Path_105_00000119800578772333673940000010761508128552870588_" class="st1" d="M1082,601.1c0,2.3-0.6,4.5-1.7,6.5
			c-1.2,2.1-2.7,4-4.6,5.6c-2,1.6-4.2,2.9-6.6,3.8c-2.5,1-5.2,1.4-7.9,1.4c-4.1,0.2-8.1-0.9-11.5-3.1c-2.8-2.2-4.4-5.6-4.1-9.1
			c0-1.7,0.3-3.4,0.8-5c0.6-1.8,1.6-3.5,3-4.8c1.7-1.6,3.7-2.8,5.9-3.6c3.2-1.1,6.5-1.5,9.8-1.4c1.7,0,3.5,0.1,5.3,0.2l5.1,0.3
			c1.6,0.1,3,0.2,4.2,0.4c1.2,0.2,2,0.3,2.5,0.4L1082,601.1z M1095.7,623.9V578c0.4-7.5-2.6-14.7-8.2-19.7
			c-6.4-4.9-14.4-7.4-22.5-6.9c-3.6,0-7.1,0.3-10.7,0.9c-2.8,0.5-5.6,1.3-8.3,2.2c-2.2,0.8-4.3,1.8-6.4,3c-1.3,0.8-2.5,1.6-3.7,2.5
			l5.2,9.5l0.6,0.9c2.6-1.8,5.4-3.4,8.3-4.7c4.2-1.7,8.8-2.5,13.4-2.3c4.8-0.3,9.6,1,13.6,3.6c3.6,2.9,5.5,7.3,5,11.9v2.6
			c-0.5-0.1-1.4-0.2-2.6-0.3c-1.2-0.1-2.8-0.2-4.5-0.3l-5.4-0.3c-1.9-0.1-3.7-0.2-5.4-0.2c-8.6-0.6-17.2,2-24.1,7.2
			c-5.6,4.8-8.6,11.8-8.4,19.1c-0.1,3.7,0.7,7.4,2.3,10.7c1.4,2.8,3.5,5.3,6,7.2c2.5,1.8,5.3,3.2,8.3,4c3,0.8,6.1,1.2,9.2,1.2
			c4.8,0,9.5-0.9,13.9-2.6c4.3-1.7,8.1-4.6,10.9-8.3l0.3,8.9h13.4c-0.1-1.5-0.2-2.7-0.2-3.7"/>
		<path id="Path_106_00000083801356387281967730000006529519000225243014_" class="st0" d="M1197.7,616.9c-3.5,3.7-7.5,6.8-11.9,9.3
			c-5.2,2.7-10.9,4-16.8,3.8c-4.5,0.1-9.1-0.6-13.4-2.1c-3.6-1.3-6.9-3.3-9.7-5.9c-2.6-2.4-4.6-5.4-5.9-8.7c-1.3-3.4-2-7-2-10.6
			c-0.1-6,1.7-11.8,5-16.8c4.2-5.8,9.4-10.7,15.4-14.6l-1.8-2.2c-2.3-2.8-4.1-5.8-5.5-9.1c-1.3-3.2-1.9-6.6-1.9-10
			c0-3,0.6-5.9,1.8-8.6c1.2-2.8,2.9-5.3,5.1-7.5c2.4-2.3,5.1-4,8.2-5.2c3.5-1.3,7.3-2,11.1-1.9c3.3-0.1,6.5,0.4,9.7,1.4
			c2.5,0.8,4.9,2.1,7.1,3.7c1.9,1.4,3.6,3.2,5,5.2c1.3,1.9,2.5,3.9,3.5,6l-9.9,6.4c-1.7-3.5-4.2-6.5-7.3-8.8
			c-2.2-1.4-4.7-2.1-7.3-2.1c-3.5-0.3-7,1-9.6,3.4c-2.1,2.1-3.3,5-3.2,7.9c0,2.7,0.8,5.4,2.1,7.8c1.6,2.8,3.5,5.5,5.7,7.9l26.9,31.4
			l12.8-16.4l10,7.9l-14.6,18.3l18,21h-17.1L1197.7,616.9z M1166.3,580.6c-4.2,2.7-7.9,6.1-10.9,10.1c-2.2,3.4-3.3,7.3-3.2,11.3
			c-0.1,4.1,1.5,8.1,4.4,11.1c3.6,3.2,8.2,4.8,13,4.4c4,0.1,8-0.9,11.4-3c3.1-2,5.9-4.5,8.3-7.3L1166.3,580.6z"/>
		<path id="Path_107_00000076594633750957942820000001255673853045881267_" class="st1" d="M1310,506.4c-8.3-0.1-16.6,1.6-24.2,4.9
			c-7.1,3.1-13.4,7.7-18.7,13.4c-5.3,5.8-9.4,12.5-12.1,19.9c-5.8,15.8-5.8,33.1,0,48.8c2.7,7.2,6.9,13.9,12.1,19.5
			c5.2,5.5,11.6,9.9,18.6,12.8c7.6,3.1,15.7,4.7,23.9,4.6c5.7,0.1,11.4-0.8,16.8-2.5c4.7-1.5,9.2-3.5,13.5-6.1
			c3.6-2.2,6.9-4.8,9.9-7.7c2.2-2.1,4.2-4.5,5.9-7.1l-11.5-9.6c-1.2,1.3-2.6,2.9-4.2,4.7c-2,2.2-4.2,4.1-6.6,5.8
			c-3,2.1-6.4,3.8-9.9,4.9c-4.5,1.5-9.2,2.2-13.9,2.1c-5.9,0.1-11.8-1.1-17.2-3.6c-5-2.3-9.5-5.7-13.1-9.9
			c-3.7-4.4-6.5-9.4-8.3-14.8c-2-5.8-3-12-3-18.2c0-6.2,0.9-12.4,2.8-18.2c1.8-5.5,4.6-10.6,8.3-15c10.8-12.1,27.7-16.9,43.3-12.2
			c3.3,1.1,6.5,2.6,9.5,4.5c2.6,1.7,5,3.7,7.1,6c1.7,1.9,3.4,4,4.9,6.1l11.7-10c-1.9-2.7-4-5.2-6.3-7.6c-2.9-2.9-6.1-5.4-9.6-7.5
			c-4.1-2.5-8.5-4.4-13-5.8C1321.4,507.1,1315.8,506.4,1310,506.4"/>
		<path id="Path_108_00000142136228594229026940000005615123246439140535_" class="st1" d="M1408,629.9c-5.4,0.1-10.8-1-15.8-3.1
			c-4.7-2-8.9-4.9-12.4-8.5c-3.5-3.6-6.2-7.9-8.1-12.5c-6-14.7-2.8-31.5,8.1-43c3.5-3.6,7.7-6.5,12.4-8.5c5-2.1,10.4-3.2,15.8-3.1
			c5.4-0.1,10.7,1,15.6,3.1c4.7,2,8.9,4.9,12.4,8.5c15,15.5,15,40.1,0,55.5c-3.5,3.6-7.8,6.5-12.4,8.5
			C1418.7,628.9,1413.4,630,1408,629.9 M1408,617.5c3.6,0.1,7.1-0.7,10.4-2.3c3-1.5,5.7-3.5,7.8-6.1c2.2-2.5,3.8-5.5,4.9-8.6
			c1.1-3.2,1.7-6.6,1.7-10c0-3.3-0.6-6.7-1.7-9.8c-1.1-3.2-2.8-6.1-5-8.7c-2.2-2.5-4.8-4.6-7.8-6.2c-3.2-1.6-6.7-2.4-10.3-2.3
			c-3.6-0.1-7.1,0.7-10.4,2.3c-3,1.5-5.7,3.5-7.8,6.1c-2.2,2.5-3.8,5.5-4.9,8.6c-1.1,3.2-1.7,6.6-1.7,10c0,3.4,0.6,6.7,1.7,9.9
			c1.1,3.2,2.8,6.1,5,8.6c2.2,2.6,4.8,4.6,7.8,6.2C1400.9,616.7,1404.5,617.5,1408,617.5"/>
		<path id="Path_109_00000177473084676357296030000012736374910091618489_" class="st1" d="M1463.5,627.7v-69.5c0-1-0.1-2.6-0.2-4.7
			h13.8l0.5,11.2c1-1.5,2.1-2.9,3.3-4.2c1.5-1.6,3.1-3,5-4.2c2.1-1.4,4.4-2.4,6.8-3.2c2.9-0.9,6-1.4,9-1.3c5-0.2,9.9,1,14.3,3.4
			c3.9,2.4,6.9,5.9,8.9,10c3.1-3.7,6.8-6.8,10.9-9.3c4.9-2.9,10.4-4.3,16.1-4.1c8-0.6,15.8,2.5,21.2,8.5c4.9,6.6,7.3,14.7,6.9,22.9
			v44.5h-14.4v-43.4c0.4-5.4-1-10.8-4.1-15.2c-3-3.4-7.4-5.2-11.9-4.9c-2.8,0-5.7,0.6-8.2,1.8c-2.5,1.2-4.7,2.8-6.6,4.9
			c-1.9,2.1-3.3,4.5-4.3,7.1c-1,2.7-1.5,5.6-1.5,8.5v41.2h-14.3v-43.4c0.4-5.4-1-10.8-4.1-15.2c-2.9-3.3-7.3-5.1-11.7-4.9
			c-3.5-0.1-6.9,0.8-9.9,2.6c-2.6,1.7-4.8,3.9-6.5,6.6c-1.7,2.9-2.9,6-3.5,9.3c-0.7,3.5-1,7-1,10.6v34.4L1463.5,627.7z"/>
		<path id="Path_110_00000085954847829228861870000011515128509370442667_" class="st1" d="M1599.1,659.6V558.2c0-1-0.1-2.6-0.2-4.7
			h13.7l0.5,10.6c1-1.2,2.1-2.4,3.2-3.5c1.6-1.5,3.3-2.9,5.2-4c2.3-1.4,4.7-2.5,7.3-3.3c3.1-0.9,6.3-1.4,9.6-1.3
			c5.2-0.1,10.3,1,14.9,3.2c4.1,2,7.7,5,10.5,8.6c2.8,3.7,4.9,7.9,6.2,12.4c1.4,4.8,2,9.8,2,14.8c0.1,6-1,11.9-3.4,17.4
			c-2.1,4.6-5.1,8.8-8.9,12.1c-3.6,3.1-7.8,5.6-12.3,7.1c-4.3,1.5-8.8,2.3-13.3,2.3c-4.1,0.1-8.1-0.4-12-1.5c-3-1-5.9-2.1-8.5-3.3
			v34.4L1599.1,659.6z M1613.3,611.6c2.2,1.7,4.7,3,7.3,4c3.8,1.4,7.9,2,11.9,1.9c3.4,0,6.8-0.6,10-2c3-1.3,5.6-3.2,7.8-5.6
			c2.2-2.4,3.9-5.3,5-8.4c1.2-3.4,1.8-7,1.8-10.6c0-3.4-0.4-6.9-1.2-10.2c-0.7-3-2-5.9-3.8-8.5c-1.8-2.5-4.1-4.5-6.8-5.8
			c-3.2-1.5-6.7-2.3-10.2-2.2c-4.7-0.1-9.3,1.4-13.1,4.2c-3.8,3.2-6.5,7.5-7.7,12.4c-0.5,1.8-0.9,3.6-1,5.5c-0.1,2-0.2,4-0.2,6.2
			L1613.3,611.6z"/>
		<path id="Path_111_00000090292697991780688130000015399050497803880585_" class="st1" d="M1734.6,618.8c-2.8,3.7-6.6,6.6-10.9,8.3
			c-4.4,1.8-9.2,2.7-14,2.6c-3.1,0-6.2-0.4-9.2-1.2c-3-0.8-5.8-2.1-8.3-4c-2.5-1.9-4.6-4.4-6.1-7.2c-1.6-3.3-2.4-7-2.3-10.8
			c-0.3-7.3,2.8-14.4,8.4-19.2c6.9-5.2,15.5-7.8,24.2-7.2c1.7,0,3.5,0.1,5.4,0.2l5.4,0.3c1.7,0.1,3.2,0.2,4.5,0.3
			c0.9,0.1,1.8,0.2,2.6,0.3v-2.6c0.4-4.6-1.5-9-5-11.9c-4.1-2.6-8.8-3.8-13.6-3.6c-4.6-0.2-9.1,0.6-13.4,2.3
			c-2.9,1.3-5.7,2.9-8.3,4.7l-6.7-9.7c1.5-1.2,3-2.3,4.6-3.2c2-1.2,4.2-2.2,6.4-3c2.7-1,5.5-1.7,8.3-2.2c3.5-0.6,7.1-0.9,10.7-0.9
			c8.1-0.5,16.1,2,22.6,6.9c5.6,5,8.7,12.2,8.2,19.7v46c0,1,0.1,2.3,0.2,3.7h-13.4L1734.6,618.8z M1734.5,592.6
			c-0.4-0.1-1.2-0.2-2.5-0.4c-1.2-0.2-2.6-0.3-4.2-0.4l-5.1-0.3c-1.8-0.1-3.6-0.2-5.3-0.2c-3.3-0.1-6.6,0.4-9.8,1.4
			c-2.2,0.8-4.2,2-5.9,3.6c-1.4,1.3-2.4,3-3,4.8c-0.5,1.6-0.8,3.3-0.8,5c-0.2,3.6,1.3,7,4.2,9.2c3.4,2.3,7.4,3.3,11.5,3.1
			c2.7,0,5.4-0.5,7.9-1.4c2.4-0.9,4.6-2.2,6.6-3.8c1.9-1.6,3.5-3.4,4.6-5.6c1.1-2,1.7-4.2,1.8-6.5L1734.5,592.6z"/>
		<path id="Path_112_00000035498930724915484210000004617421122349012375_" class="st1" d="M1767.8,627.7v-69.5c0-1,0-2.6-0.2-4.7
			h13.7l0.5,11.2c0.9-1.3,2.1-2.7,3.5-4.2c1.5-1.6,3.2-3.1,5.1-4.2c4.9-3,10.5-4.6,16.3-4.5c8.1-0.6,16,2.5,21.5,8.5
			c5,6.6,7.5,14.7,7,23v44.5h-14.4v-43.4c0.5-5.5-1.1-10.9-4.5-15.2c-3.3-3.4-7.9-5.1-12.6-4.9c-6.9-0.3-13.5,3.2-17,9.2
			c-1.7,2.9-2.9,6-3.6,9.3c-0.7,3.5-1.1,7-1.1,10.6v34.4L1767.8,627.7z"/>
		<path id="Path_113_00000119823554987942894590000011063366295223500709_" class="st1" d="M1851.7,645.9c1.1,1,2.3,1.9,3.7,2.6
			c1.6,0.8,3.3,1.2,5.1,1.1c1.5,0,3.1-0.3,4.4-1.1c1.4-0.9,2.5-2.1,3.3-3.4c1.1-1.8,2.1-3.6,2.9-5.6c0.9-2.2,1.9-4.7,3.1-7.6
			l1.9-4.8l-33.2-73.5h16.4l23.9,56l21.1-56h15.6l-29.7,72.3c-1.4,3.4-2.8,7.2-4.2,11.3c-1.4,4-3.2,7.9-5.3,11.6
			c-2,3.5-4.7,6.6-7.8,9.2c-3.3,2.5-7.5,3.8-11.6,3.7c-3.2,0.1-6.4-0.4-9.4-1.5c-2.5-0.9-4.7-2.3-6.7-4.1L1851.7,645.9z"/>
	</g>
</g>
</svg>
