<svg xmlns="http://www.w3.org/2000/svg" viewBox="0 0 1076.11 268.71"><defs><style>.e11bbe67-46b0-45f3-b49d-d49c6ff4a6cd{fill:#f8c625;}.fbd00e84-c6de-4753-8a9a-654f19740712{fill:#207b3d;}.bd490d63-430b-4ed9-a94b-251874d28340{fill:#1c6eb7;}.a9dbefc5-9e35-4959-bda7-2ed9eee4cd0f{fill:#f6862b;}.ae873dc4-21e9-47a3-bc7d-054fa002881d{fill:#cd2630;}.f110b389-545e-44ea-9d20-87b14c856619{fill:#fff;}</style></defs><g id="bc7e07d6-a61c-446d-a78d-5c3619b23790" data-name="Layer 2"><g id="be0006fa-4ec4-4b3c-95de-85eb25974f4c" data-name="Layer 1"><path class="e11bbe67-46b0-45f3-b49d-d49c6ff4a6cd" d="M124.74,4.53,57.57,72.89l-12,62.17,79.18-46.9s20.41-11.85,35.56,0,38.51,26.62,38.51,26.62L162.29,11.31,151.08,4.53A20,20,0,0,0,138.8,0c-3.9-.13-8.64,1.13-14.06,4.52"/><path class="fbd00e84-c6de-4753-8a9a-654f19740712" d="M9.25,76.88S0,82.15,0,96.63v83s-.85,9.34,6.58,13.17h5.27L125.14,4.44Z"/><path class="bd490d63-430b-4ed9-a94b-251874d28340" d="M6.61,192.77l118.53,69.8c19.15,11.83,30.31,3.07,31.88,2.19.09-.07,43.19-110.18,43.19-110.18s-39.51,32.93-52.68,38.19-26.66-6.18-26.66-6.18l-73.6-52.66Z"/><polygon class="a9dbefc5-9e35-4959-bda7-2ed9eee4cd0f" points="198.59 114.66 238.41 140.47 274.34 114.51 274.34 81.02 273.98 79.13 270.45 75.95 149.23 3.17 198.59 114.66"/><path class="ae873dc4-21e9-47a3-bc7d-054fa002881d" d="M266.06,104.53l-65.85,50.05L155.45,265.72l111.27-68.34s14.46-9,14.49-23.7l0-80.05a21.85,21.85,0,0,0-10.85-17.75s5.61,20.75-4.27,28.65"/><path class="f110b389-545e-44ea-9d20-87b14c856619" d="M353.19,106.59a9,9,0,0,0-3.37,7.35,8.3,8.3,0,0,0,4.12,7.27q4.13,2.7,19.05,6.38t23.18,11q8.25,7.35,8.25,21.45t-10.58,22.88q-10.57,8.77-27.82,8.77-24.9,0-44.85-18.45l13.95-17.1q17,14.85,31.35,14.85,6.45,0,10.12-2.77a8.91,8.91,0,0,0,3.68-7.5,8.74,8.74,0,0,0-3.9-7.5q-3.9-2.78-15.45-5.63-18.3-4.35-26.78-11.32t-8.47-21.9q0-14.92,10.72-23t26.78-8.1a64.4,64.4,0,0,1,21,3.6,56.24,56.24,0,0,1,18.3,10.2l-11.85,17.1q-13.65-10.35-28.2-10.35Q356.57,103.81,353.19,106.59Z"/><path class="f110b389-545e-44ea-9d20-87b14c856619" d="M443.87,126v36.15a10.39,10.39,0,0,0,2.4,7.28,7.47,7.47,0,0,0,5.7,2.62q6.3,0,10.65-5.7l8.4,15.75q-10.5,9.6-22.13,9.6a27.41,27.41,0,0,1-19.65-7.65q-8-7.65-8-20.85V126h-9.45v-16.2h9.45V85.66h22.65v24.15h19.5V126Z"/><path class="f110b389-545e-44ea-9d20-87b14c856619" d="M525.47,129.61q-10.07,0-15,7.13t-5,18.82v34.95H483v-80.7h22.5v10.65a37.64,37.64,0,0,1,10.87-8.4,29.57,29.57,0,0,1,13.28-3.6l.15,21.15Z"/><path class="f110b389-545e-44ea-9d20-87b14c856619" d="M612.47,190.51H591.32v-9.75q-8.7,11-21.53,11t-21.52-7.42q-8.71-7.42-8.7-19.8t9-18.53q9-6.15,24.6-6.15H590v-.45q0-12.9-13.65-12.9a36.94,36.94,0,0,0-12.38,2.33,40.1,40.1,0,0,0-11,5.77l-10-14.55a60.15,60.15,0,0,1,36.3-11.55q14.69,0,24,7.35t9.3,23.25Zm-22.65-30.75v-3.9h-14.1q-13.5,0-13.5,8.4a7.73,7.73,0,0,0,3.22,6.68q3.22,2.33,9.23,2.32a16.4,16.4,0,0,0,10.57-3.67A12,12,0,0,0,589.82,159.76Z"/><path class="f110b389-545e-44ea-9d20-87b14c856619" d="M656,126v36.15a10.39,10.39,0,0,0,2.4,7.28,7.47,7.47,0,0,0,5.7,2.62q6.3,0,10.65-5.7l8.4,15.75q-10.5,9.6-22.12,9.6a27.41,27.41,0,0,1-19.65-7.65q-8-7.65-8-20.85V126h-9.45v-16.2h9.45V85.66H656v24.15h19.5V126Z"/><path class="f110b389-545e-44ea-9d20-87b14c856619" d="M765,178.81a45.11,45.11,0,0,1-32,12.9q-18.37,0-30.38-11.32t-12-30.38q0-19,12.23-30.3a41.22,41.22,0,0,1,28.87-11.25q16.65,0,28.28,10.05t11.62,27.6v12h-58.8a16,16,0,0,0,6.9,10.8,22.08,22.08,0,0,0,13.2,4.2q11.85,0,19.5-8ZM743.41,131a17,17,0,0,0-11.32-3.9,20.29,20.29,0,0,0-12.23,4.05,15.49,15.49,0,0,0-6.45,10.95h35.4Q748.06,134.86,743.41,131Z"/><path class="f110b389-545e-44ea-9d20-87b14c856619" d="M847.51,176.86A34.14,34.14,0,0,1,821,188.71q-15.84,0-26.7-10.72t-10.88-28.65q0-17.93,11.18-29.4t25.57-11.48q14.4,0,23.85,11.85V109.66h22.5V180a46.65,46.65,0,0,1-3.75,19.2,33.17,33.17,0,0,1-10,13.2q-12.45,9.9-29.4,9.9A61.4,61.4,0,0,1,805,219.39a52.44,52.44,0,0,1-16.43-8.33l8.7-16.95q11.1,8.4,23.48,8.4t19.57-6.15Q847.51,190.21,847.51,176.86Zm-3.15-28.42q0-9.67-5.4-15.23a17.88,17.88,0,0,0-13.35-5.55,19.1,19.1,0,0,0-13.72,5.55q-5.77,5.55-5.78,15.15t5.63,15.53a18.19,18.19,0,0,0,13.72,5.92A17.61,17.61,0,0,0,839,164Q844.36,158.11,844.36,148.44Z"/><path class="f110b389-545e-44ea-9d20-87b14c856619" d="M886.74,99.54a13.41,13.41,0,1,1,9.37,3.82A12.76,12.76,0,0,1,886.74,99.54Zm20.62,91h-22.5v-80.7h22.5Z"/><path class="f110b389-545e-44ea-9d20-87b14c856619" d="M995.56,178.81a45.13,45.13,0,0,1-32,12.9q-18.37,0-30.37-11.32t-12-30.38q0-19,12.22-30.3a41.24,41.24,0,0,1,28.88-11.25q16.65,0,28.27,10.05t11.63,27.6v12h-58.8a16,16,0,0,0,6.9,10.8,22.08,22.08,0,0,0,13.2,4.2q11.85,0,19.5-8ZM974,131a17,17,0,0,0-11.33-3.9,20.26,20.26,0,0,0-12.22,4.05A15.49,15.49,0,0,0,944,142.06h35.4Q978.61,134.86,974,131Z"/><path class="f110b389-545e-44ea-9d20-87b14c856619" d="M1076.11,165.39q0,11.93-8.78,19.12t-22.27,7.2a59.62,59.62,0,0,1-18.75-3.22,55.34,55.34,0,0,1-17.55-9.53l9.9-14.1q12.6,9.75,26.85,9.75a12.15,12.15,0,0,0,6.9-1.72,5.3,5.3,0,0,0,2.55-4.58q0-2.85-3.53-5.25a39.78,39.78,0,0,0-10.2-4.5q-6.68-2.1-10.2-3.6a57.36,57.36,0,0,1-8-4.35q-9.15-5.7-9.15-16.87a22.12,22.12,0,0,1,9-18.23q9-7,23.25-7.05t28.5,9.6l-8.4,15q-10.5-7.2-20.93-7.2t-10.42,5.7q0,3.15,3.3,4.95a66.78,66.78,0,0,0,10.95,4.2q7.65,2.4,10.87,3.68a54.62,54.62,0,0,1,7.73,4Q1076.11,153.46,1076.11,165.39Z"/></g></g></svg>