<svg xmlns="http://www.w3.org/2000/svg" id="Final" viewBox="0 0 510 210"><defs><style>      .cls-1 {        fill: none;      }      .cls-2 {        fill: #ff5800;      }    </style></defs><rect class="cls-1" width="510" height="210"></rect><g><path class="cls-2" d="M284.89,53.54h7.52c-1.19-8.16-7.67-14.61-15.85-15.73v7.5c4.1.95,7.33,4.15,8.33,8.24"></path><path class="cls-2" d="M261.12,42.82c-2.92,2.8-4.93,6.53-5.53,10.72h7.52c.55-2.24,1.77-4.2,3.43-5.69l2.13,1.98,2.55-12.01-12.21,3.04,2.11,1.96Z"></path><path class="cls-2" d="M263.1,58.9h-7.52c1.17,8.08,7.54,14.48,15.6,15.7v-7.52c-3.98-1.02-7.11-4.18-8.08-8.17"></path><path class="cls-2" d="M276.56,67.14v7.49c8.18-1.13,14.67-7.57,15.85-15.73h-7.52c-1,4.08-4.23,7.28-8.33,8.24"></path><polygon class="cls-2" points="54.75 105.08 54.75 105.08 82.26 71.79 57.97 71.79 42.36 94.2 27.12 71.79 2.83 71.79 30.41 105.01 30.35 105.08 2.83 138.37 27.13 138.37 42.73 115.96 57.98 138.37 82.26 138.37 54.69 105.15 54.75 105.08"></polygon><polygon class="cls-2" points="129.95 126.04 111.19 71.79 90.83 71.79 118.04 138.37 140.54 138.37 167.71 71.79 149.48 71.79 129.95 126.04"></polygon><path class="cls-2" d="M243.19,124.46c-.38-2.58-.83-5.04-1.35-7.38-.52-2.28-1.18-4.19-1.96-5.72-1.13-2.1-2.81-3.57-5.01-4.41-2.26-.81-4.82-1.27-7.67-1.4v-.18c4.88-.99,8.84-2.86,11.88-5.63,2.9-2.7,4.38-6.21,4.44-10.53-.17-11.62-8.3-17.42-24.37-17.42h-39.37v66.58h18.72v-25.26h12.52c3.69,0,6.43.36,8.2,1.08,1.72.75,2.82,1.92,3.32,3.51.81,2.46,1.41,5.66,1.79,9.59.29,3.93.89,7.62,1.79,11.07h19.9c-.58-1.77-1.12-3.89-1.61-6.35-.41-2.46-.81-4.98-1.22-7.56M222.4,98.11c-1.75,1.42-4.73,2.13-8.95,2.13h-14.94v-15.59h12.32c4.6-.06,8.1.41,10.48,1.4,2.33,1.06,3.5,3.16,3.5,6.3.06,2.54-.74,4.46-2.4,5.75"></path></g></svg>